<?xml version="1.0" encoding="UTF-8" standalone="no"?>
<svg
   xmlns:dc="http://purl.org/dc/elements/1.1/"
   xmlns:cc="http://creativecommons.org/ns#"
   xmlns:rdf="http://www.w3.org/1999/02/22-rdf-syntax-ns#"
   xmlns:svg="http://www.w3.org/2000/svg"
   xmlns="http://www.w3.org/2000/svg"
   id="svg8"
   version="1.1"
   viewBox="0 0 50 50"
   height="50mm"
   width="50mm">
  <defs
     id="defs2" />
  <metadata
     id="metadata5">
    <rdf:RDF>
      <cc:Work
         rdf:about="">
        <dc:format>image/svg+xml</dc:format>
        <dc:type
           rdf:resource="http://purl.org/dc/dcmitype/StillImage" />
        <dc:title></dc:title>
      </cc:Work>
    </rdf:RDF>
  </metadata>
  <g
     id="layer1">
    <path
       d="m 19.999873,10 -5.00021,5.000211 H 1 V 44.999929 H 49.000169 V 15.000211 H 34.99999 L 29.999778,10 Z m 4.939749,7.500317 a 12.499999,12.499999 0 0 1 0.06046,0 A 12.499999,12.499999 0 0 1 37.500097,30.00033 12.499999,12.499999 0 0 1 25.000085,42.500342 12.499999,12.499999 0 0 1 12.500073,30.00033 12.499999,12.499999 0 0 1 24.939622,17.500317 Z m 19.529041,0.335897 a 2.5,2.5 0 0 1 0.02894,0 2.5,2.5 0 0 1 2.500106,2.500106 2.5,2.5 0 0 1 -2.500106,2.499589 2.5,2.5 0 0 1 -2.500106,-2.499589 2.5,2.5 0 0 1 2.471166,-2.500106 z M 25.000085,20.000423 A 10,10 0 0 0 14.999663,30.00033 10,10 0 0 0 25.000085,40.000752 10,10 0 0 0 34.99999,30.00033 10,10 0 0 0 25.000085,20.000423 Z"
       style="fill:#ffffff;stroke:none;stroke-width:0.666374;stroke-linecap:round;stroke-linejoin:round;paint-order:stroke fill markers"
       id="rect833" />
  </g>
</svg>
